<?xml version="1.0" encoding="UTF-8" standalone="no"?>
<svg
   xmlns:dc="http://purl.org/dc/elements/1.1/"
   xmlns:cc="http://creativecommons.org/ns#"
   xmlns:rdf="http://www.w3.org/1999/02/22-rdf-syntax-ns#"
   xmlns:svg="http://www.w3.org/2000/svg"
   xmlns="http://www.w3.org/2000/svg"
   xmlns:sodipodi="http://sodipodi.sourceforge.net/DTD/sodipodi-0.dtd"
   xmlns:inkscape="http://www.inkscape.org/namespaces/inkscape"
   width="177.7079mm"
   height="24.733898mm"
   viewBox="0 0 177.7079 24.733898"
   version="1.1"
   id="svg1723"
   inkscape:version="1.0.2 (e86c870879, 2021-01-15, custom)"
   sodipodi:docname="csm_logo_long.svg">
  <defs
     id="defs1717" />
  <sodipodi:namedview
     id="base"
     pagecolor="#ffffff"
     bordercolor="#666666"
     borderopacity="1.0"
     inkscape:pageopacity="0.0"
     inkscape:pageshadow="2"
     inkscape:zoom="0.35"
     inkscape:cx="330.11166"
     inkscape:cy="363.88409"
     inkscape:document-units="mm"
     inkscape:current-layer="layer1"
     inkscape:document-rotation="0"
     showgrid="false"
     inkscape:window-width="1465"
     inkscape:window-height="1040"
     inkscape:window-x="2076"
     inkscape:window-y="0"
     inkscape:window-maximized="0" />
  <metadata
     id="metadata1720">
    <rdf:RDF>
      <cc:Work
         rdf:about="">
        <dc:format>image/svg+xml</dc:format>
        <dc:type
           rdf:resource="http://purl.org/dc/dcmitype/StillImage" />
        <dc:title></dc:title>
      </cc:Work>
    </rdf:RDF>
  </metadata>
  <g
     inkscape:label="Warstwa 1"
     inkscape:groupmode="layer"
     id="layer1"
     transform="translate(-18.49129,-51.889001)">
    <g
       id="g2636"
       transform="translate(-18.89881,111.88095)">
      <g
         id="g1972"
         transform="matrix(0.79185507,0,0,0.79185507,21.734999,-186.11412)">
        <path
           style="fill:none;stroke:#007d00;stroke-width:0.562365;stroke-linecap:round;stroke-linejoin:round;stroke-miterlimit:4;stroke-dasharray:none;stroke-opacity:1"
           d="m 220.68783,174.9592 h 3.55848 l 3.08114,-3.85393 2.47796,4.7736 2.22929,-16.2069 1.89164,30.44006 1.57519,-16.16012 1.48903,1.92697 1.92696,-2.4525 1.5766,1.53281 h 3.41458"
           id="cardio-4"
           sodipodi:nodetypes="ccccccccccc" />
        <g
           id="g1332"
           transform="matrix(0.80337886,0,0,0.80337886,-179.34995,-46.73479)">
          <rect
             style="fill:none;stroke:#ff0000;stroke-width:0.7"
             id="sq_red-3"
             width="12.239697"
             height="12.239697"
             x="370.68289"
             y="-7.3384662"
             transform="rotate(45)" />
          <rect
             style="fill:none;stroke:#007d00;stroke-width:0.7;stroke-miterlimit:4;stroke-dasharray:none;stroke-opacity:1"
             id="sq_green-6"
             width="12.239697"
             height="12.239697"
             x="370.73627"
             y="7.279057"
             transform="rotate(45)" />
          <rect
             style="fill:none;stroke:#0000ff;stroke-width:0.7;stroke-opacity:1"
             id="sq_blue-1"
             width="12.239697"
             height="12.239697"
             x="385.23553"
             y="7.2141461"
             transform="rotate(45)" />
        </g>
        <g
           id="t_collegium-0"
           transform="matrix(0.80337886,0,0,0.80337886,6.4678594,85.009204)">
          <path
             d="m 54.345837,125.2691 v 0.67248 h -1.363133 q -2.580864,0 -4.325673,-1.72663 -1.726635,-1.72664 -1.726635,-4.27115 0,-2.58087 1.835685,-4.32568 1.85386,-1.76298 4.56195,-1.76298 h 1.017806 v 0.67248 h -0.89058 q -2.489989,0 -4.125748,1.54488 -1.635759,1.52671 -1.635759,3.85312 0,2.58087 1.890211,4.14393 1.454008,1.19955 3.67137,1.19955 z"
             style="font-style:normal;font-variant:normal;font-weight:normal;font-stretch:normal;font-size:18.1751px;line-height:1.25;font-family:Dessau;-inkscape-font-specification:Dessau;fill:#000000;fill-opacity:1;stroke:none;stroke-width:0.45173"
             id="path898-2" />
          <path
             d="m 59.307618,117.74461 q 1.672109,0 2.871666,1.23591 1.217732,1.23591 1.217732,2.94436 0,1.72664 -1.217732,2.94437 -1.199557,1.19956 -2.908016,1.19956 -1.726635,0 -2.944366,-1.21773 -1.199557,-1.21774 -1.199557,-2.94437 0,-1.72664 1.217732,-2.94437 1.235907,-1.21773 2.962541,-1.21773 z m 0,0.65431 q -1.435833,0 -2.453638,1.03598 -0.999631,1.0178 -0.999631,2.47181 0,1.43583 1.017806,2.47181 1.017805,1.03598 2.417288,1.03598 1.399483,0 2.380938,-1.0178 0.999631,-1.01781 0.999631,-2.47182 0,-1.43583 -0.999631,-2.47181 -0.99963,-1.05415 -2.362763,-1.05415 z"
             style="font-style:normal;font-variant:normal;font-weight:normal;font-stretch:normal;font-size:18.1751px;line-height:1.25;font-family:Dessau;-inkscape-font-specification:Dessau;fill:#000000;fill-opacity:1;stroke:none;stroke-width:0.45173"
             id="path900-3" />
          <path
             d="m 66.214152,125.94158 h -0.708828 v -12.08644 h 0.708828 z"
             style="font-style:normal;font-variant:normal;font-weight:normal;font-stretch:normal;font-size:18.1751px;line-height:1.25;font-family:Dessau;-inkscape-font-specification:Dessau;fill:#000000;fill-opacity:1;stroke:none;stroke-width:0.45173"
             id="path902-2" />
          <path
             d="m 69.522006,125.94158 h -0.708829 v -12.08644 h 0.708829 z"
             style="font-style:normal;font-variant:normal;font-weight:normal;font-stretch:normal;font-size:18.1751px;line-height:1.25;font-family:Dessau;-inkscape-font-specification:Dessau;fill:#000000;fill-opacity:1;stroke:none;stroke-width:0.45173"
             id="path904-7" />
          <path
             d="m 79.209311,122.10664 h 0.672478 q -0.09087,1.5994 -0.945105,2.58086 -1.181381,1.38131 -3.126117,1.38131 -1.74481,0 -2.980717,-1.21773 -1.217731,-1.21774 -1.217731,-2.94437 0,-1.72664 1.181381,-2.92619 1.199557,-1.21773 2.889841,-1.21773 2.162837,0 3.52597,1.96291 l -5.670632,3.87129 -0.327152,-0.52707 4.979978,-3.41692 q -0.85423,-1.23591 -2.544514,-1.23591 -1.381308,0 -2.344588,0.99963 -0.96328,0.99963 -0.96328,2.39911 0,1.43584 1.03598,2.52634 1.035981,1.07233 2.435464,1.07233 1.435833,0 2.399113,-0.9451 0.96328,-0.96328 0.999631,-2.36276 z"
             style="font-style:normal;font-variant:normal;font-weight:normal;font-stretch:normal;font-size:18.1751px;line-height:1.25;font-family:Dessau;-inkscape-font-specification:Dessau;fill:#000000;fill-opacity:1;stroke:none;stroke-width:0.45173"
             id="path906-4" />
          <path
             d="m 82.971522,129.70383 0.163576,-0.63613 q 1.399482,0.39985 2.399113,0.39985 1.74481,0 2.70809,-1.19956 0.654304,-0.81787 0.654304,-2.45363 v -3.27152 q 0,-1.87204 -0.963281,-2.99889 -0.945105,-1.14503 -2.526339,-1.14503 -1.454008,0 -2.453638,1.03598 -0.981456,1.03598 -0.981456,2.52633 0,1.43584 0.999631,2.45364 0.99963,0.99963 2.435463,0.99963 1.435833,0 2.889841,-1.32678 v 0.90876 q -1.472183,1.07233 -2.81714,1.07233 -1.74481,0 -2.998892,-1.21773 -1.235907,-1.23591 -1.235907,-2.94437 0,-1.70846 1.217732,-2.92619 1.235907,-1.23591 2.962541,-1.23591 1.999261,0 3.216993,1.52671 0.96328,1.19956 0.96328,3.08977 v 3.67137 q 0,1.99926 -1.126856,3.01706 -1.199556,1.07233 -2.926191,1.07233 -1.217732,0 -2.580864,-0.41802 z"
             style="font-style:normal;font-variant:normal;font-weight:normal;font-stretch:normal;font-size:18.1751px;line-height:1.25;font-family:Dessau;-inkscape-font-specification:Dessau;fill:#000000;fill-opacity:1;stroke:none;stroke-width:0.45173"
             id="path908-1" />
          <path
             d="m 93.149562,125.94158 h -0.708829 v -8.06974 h 0.708829 z m -0.345327,-10.99593 q 0.272626,0 0.454377,0.19992 0.199926,0.19993 0.199926,0.47255 0,0.27263 -0.199926,0.47256 -0.199926,0.18175 -0.472552,0.18175 -0.254452,0 -0.454378,-0.19993 -0.199926,-0.19992 -0.199926,-0.45438 0,-0.67247 0.672479,-0.67247 z"
             style="font-style:normal;font-variant:normal;font-weight:normal;font-stretch:normal;font-size:18.1751px;line-height:1.25;font-family:Dessau;-inkscape-font-specification:Dessau;fill:#000000;fill-opacity:1;stroke:none;stroke-width:0.45173"
             id="path910-6" />
          <path
             d="m 101.96448,117.87184 h 0.70883 v 4.61647 q 0,1.54489 -0.96328,2.56269 -0.94511,1.01781 -2.399114,1.01781 -1.435832,0 -2.380938,-0.99963 -0.945105,-0.99963 -0.945105,-2.52634 v -4.671 h 0.708829 v 4.28932 q 0,1.50853 0.581603,2.25371 0.78153,0.99963 2.053787,0.99963 1.399478,0 2.162838,-1.1632 0.47255,-0.72701 0.47255,-2.21736 z"
             style="font-style:normal;font-variant:normal;font-weight:normal;font-stretch:normal;font-size:18.1751px;line-height:1.25;font-family:Dessau;-inkscape-font-specification:Dessau;fill:#000000;fill-opacity:1;stroke:none;stroke-width:0.45173"
             id="path912-3" />
          <path
             d="m 116.06833,125.94158 h -0.70883 v -5.05268 q 0,-1.10868 -0.54526,-1.72663 -0.67248,-0.76335 -1.67211,-0.76335 -1.10868,0 -1.76298,0.90875 -0.45438,0.63613 -0.45438,1.92656 v 4.70735 h -0.70883 v -4.85275 q 0,-1.25408 -0.5089,-1.87204 -0.67248,-0.81787 -1.72663,-0.81787 -1.18139,0 -1.81751,0.90875 -0.38168,0.54525 -0.38168,1.83569 v 4.79822 h -0.70883 v -4.92545 q 0,-1.58123 0.727,-2.36276 0.85423,-0.90876 2.14467,-0.90876 1.74481,0 2.61721,1.70846 0.98146,-1.70846 2.58086,-1.70846 1.47219,0 2.32642,1.09051 0.59978,0.76335 0.59978,2.01743 z"
             style="font-style:normal;font-variant:normal;font-weight:normal;font-stretch:normal;font-size:18.1751px;line-height:1.25;font-family:Dessau;-inkscape-font-specification:Dessau;fill:#000000;fill-opacity:1;stroke:none;stroke-width:0.45173"
             id="path914-1" />
        </g>
        <g
           id="t_medicum-0"
           transform="matrix(0.80337886,0,0,0.80337886,6.4678594,85.009204)">
          <path
             d="m 136.13359,125.94158 h -0.727 l -1.34496,-10.90506 q -0.0727,-0.56343 -0.23628,-0.56343 -0.1454,0 -0.30897,0.54526 l -3.0716,10.1417 q -0.27262,0.87241 -0.81788,0.87241 -0.61795,0 -0.96328,-1.18138 l -2.94436,-10.10536 q -0.0727,-0.27263 -0.2181,-0.27263 -0.18175,0 -0.2181,0.29081 l -1.45401,11.17768 h -0.74518 l 1.45401,-10.94141 q 0.0727,-0.54525 0.2181,-0.7997 0.23627,-0.41803 0.76335,-0.41803 0.67248,0 0.98146,1.03598 l 2.94436,10.12353 q 0.0909,0.32715 0.18175,0.32715 0.0909,0 0.19993,-0.38167 l 3.01707,-9.97813 q 0.34532,-1.12686 0.99963,-1.12686 0.78153,0 0.9451,1.27226 z"
             style="font-style:normal;font-variant:normal;font-weight:normal;font-stretch:normal;font-size:18.1751px;line-height:1.25;font-family:Dessau;-inkscape-font-specification:Dessau;fill:#000000;fill-opacity:1;stroke:none;stroke-width:0.45173"
             id="path916-6" />
          <path
             d="m 145.60281,122.10664 h 0.67248 q -0.0909,1.5994 -0.94511,2.58086 -1.18138,1.38131 -3.12612,1.38131 -1.74481,0 -2.98071,-1.21773 -1.21773,-1.21774 -1.21773,-2.94437 0,-1.72664 1.18138,-2.92619 1.19955,-1.21773 2.88984,-1.21773 2.16284,0 3.52597,1.96291 l -5.67063,3.87129 -0.32716,-0.52707 4.97998,-3.41692 q -0.85423,-1.23591 -2.54451,-1.23591 -1.38131,0 -2.34459,0.99963 -0.96328,0.99963 -0.96328,2.39911 0,1.43584 1.03598,2.52634 1.03598,1.07233 2.43546,1.07233 1.43584,0 2.39912,-0.9451 0.96328,-0.96328 0.99963,-2.36276 z"
             style="font-style:normal;font-variant:normal;font-weight:normal;font-stretch:normal;font-size:18.1751px;line-height:1.25;font-family:Dessau;-inkscape-font-specification:Dessau;fill:#000000;fill-opacity:1;stroke:none;stroke-width:0.45173"
             id="path918-8" />
          <path
             d="m 155.98076,113.85514 v 7.65172 q 0,1.98108 -1.09051,3.19881 -1.21773,1.36314 -3.07159,1.36314 -1.72663,0 -2.94436,-1.21773 -1.21774,-1.23591 -1.21774,-2.9989 0,-1.69028 1.21774,-2.88984 1.21773,-1.21773 2.92619,-1.21773 1.63576,0 2.85349,1.16321 v 0.85423 q -1.41766,-1.36313 -2.83532,-1.36313 -1.43583,0 -2.43546,1.0178 -0.99963,1.01781 -0.99963,2.48999 0,1.43583 0.99963,2.47181 1.0178,1.03598 2.41729,1.03598 1.65393,0 2.74444,-1.39948 0.727,-0.9451 0.727,-2.72626 v -7.43362 z"
             style="font-style:normal;font-variant:normal;font-weight:normal;font-stretch:normal;font-size:18.1751px;line-height:1.25;font-family:Dessau;-inkscape-font-specification:Dessau;fill:#000000;fill-opacity:1;stroke:none;stroke-width:0.45173"
             id="path920-8" />
          <path
             d="m 159.47036,125.94158 h -0.70883 v -8.06974 h 0.70883 z m -0.34532,-10.99593 q 0.27262,0 0.45437,0.19992 0.19993,0.19993 0.19993,0.47255 0,0.27263 -0.19993,0.47256 -0.19992,0.18175 -0.47255,0.18175 -0.25445,0 -0.45438,-0.19993 -0.19992,-0.19992 -0.19992,-0.45438 0,-0.67247 0.67248,-0.67247 z"
             style="font-style:normal;font-variant:normal;font-weight:normal;font-stretch:normal;font-size:18.1751px;line-height:1.25;font-family:Dessau;-inkscape-font-specification:Dessau;fill:#000000;fill-opacity:1;stroke:none;stroke-width:0.45173"
             id="path922-6" />
          <path
             d="m 166.99484,125.30545 v 0.63613 h -0.81788 q -2.09014,0 -3.21699,-1.12685 -1.23591,-1.23591 -1.23591,-2.88985 0,-1.92656 1.50853,-3.16246 1.09051,-0.89058 2.90802,-0.89058 h 0.85423 v 0.63613 h -0.85423 q -1.65393,0 -2.67174,0.9451 -1.01781,0.94511 -1.01781,2.50816 0,1.61759 1.16321,2.56269 0.96328,0.78153 2.48999,0.78153 z"
             style="font-style:normal;font-variant:normal;font-weight:normal;font-stretch:normal;font-size:18.1751px;line-height:1.25;font-family:Dessau;-inkscape-font-specification:Dessau;fill:#000000;fill-opacity:1;stroke:none;stroke-width:0.45173"
             id="path924-3" />
          <path
             d="m 174.84647,117.87184 h 0.70882 v 4.61647 q 0,1.54489 -0.96328,2.56269 -0.9451,1.01781 -2.39911,1.01781 -1.43583,0 -2.38094,-0.99963 -0.9451,-0.99963 -0.9451,-2.52634 v -4.671 h 0.70883 v 4.28932 q 0,1.50853 0.5816,2.25371 0.78153,0.99963 2.05379,0.99963 1.39948,0 2.16283,-1.1632 0.47256,-0.72701 0.47256,-2.21736 z"
             style="font-style:normal;font-variant:normal;font-weight:normal;font-stretch:normal;font-size:18.1751px;line-height:1.25;font-family:Dessau;-inkscape-font-specification:Dessau;fill:#000000;fill-opacity:1;stroke:none;stroke-width:0.45173"
             id="path926-8" />
          <path
             d="m 188.9503,125.94158 h -0.70883 v -5.05268 q 0,-1.10868 -0.54525,-1.72663 -0.67248,-0.76335 -1.67211,-0.76335 -1.10868,0 -1.76298,0.90875 -0.45438,0.63613 -0.45438,1.92656 v 4.70735 h -0.70883 v -4.85275 q 0,-1.25408 -0.5089,-1.87204 -0.67248,-0.81787 -1.72664,-0.81787 -1.18138,0 -1.81751,0.90875 -0.38167,0.54525 -0.38167,1.83569 v 4.79822 h -0.70883 v -4.92545 q 0,-1.58123 0.727,-2.36276 0.85423,-0.90876 2.14466,-0.90876 1.74481,0 2.61722,1.70846 0.98145,-1.70846 2.58086,-1.70846 1.47218,0 2.32641,1.09051 0.59978,0.76335 0.59978,2.01743 z"
             style="font-style:normal;font-variant:normal;font-weight:normal;font-stretch:normal;font-size:18.1751px;line-height:1.25;font-family:Dessau;-inkscape-font-specification:Dessau;fill:#000000;fill-opacity:1;stroke:none;stroke-width:0.45173"
             id="path928-6" />
        </g>
        <g
           id="t_ujkkielce-5"
           transform="matrix(0.80337886,0,0,0.80337886,6.4678594,85.009204)">
          <path
             d="m 203.41764,113.85514 h 0.727 v 7.46997 q 0,2.27188 -0.9451,3.45327 -1.12686,1.39948 -3.03524,1.39948 -1.83569,0 -3.03524,-1.38131 -0.92693,-1.07233 -0.92693,-3.10794 v -7.83347 h 0.727 v 7.72442 q 0,1.98108 0.92693,2.94436 0.92693,0.96328 2.34459,0.96328 1.69028,0 2.61721,-1.41765 0.59978,-0.90876 0.59978,-2.72627 z"
             style="font-style:normal;font-variant:normal;font-weight:normal;font-stretch:normal;font-size:18.1751px;line-height:1.25;font-family:Dessau;-inkscape-font-specification:Dessau;fill:#000000;fill-opacity:1;stroke:none;stroke-width:0.45173"
             id="path930-1" />
          <path
             d="m 210.97846,113.85514 v 8.08792 q 0,1.10868 -0.23628,1.76298 -0.2181,0.65431 -0.7997,1.21774 -1.05416,1.0178 -3.05342,1.0178 h -1.18138 v -0.67248 h 0.92693 q 0.96328,0 1.45401,-0.10905 0.74518,-0.16357 1.27226,-0.67248 0.89058,-0.83605 0.89058,-2.61721 v -8.01522 z"
             style="font-style:normal;font-variant:normal;font-weight:normal;font-stretch:normal;font-size:18.1751px;line-height:1.25;font-family:Dessau;-inkscape-font-specification:Dessau;fill:#000000;fill-opacity:1;stroke:none;stroke-width:0.45173"
             id="path932-6" />
          <path
             d="m 214.86791,125.94158 h -0.727 v -12.08644 h 0.727 v 5.43436 h 1.92656 q 1.07233,0 1.63576,-0.41803 0.56343,-0.4362 1.0905,-1.61759 l 1.49036,-3.39874 h 0.83606 l -1.61759,3.61684 q -0.63612,1.43584 -1.59941,1.96292 1.52671,0.34532 2.19919,1.29043 0.4362,0.61795 0.56343,1.43583 0.0545,0.41803 0.0545,1.56306 v 0.76335 q 0,0.96328 0.0909,1.45401 h -0.727 q -0.0909,-0.56343 -0.0909,-1.29043 v -1.01781 q 0,-1.29043 -0.1454,-1.74481 -0.59978,-1.92656 -3.01707,-1.92656 h -2.68991 z"
             style="font-style:normal;font-variant:normal;font-weight:normal;font-stretch:normal;font-size:18.1751px;line-height:1.25;font-family:Dessau;-inkscape-font-specification:Dessau;fill:#000000;fill-opacity:1;stroke:none;stroke-width:0.45173"
             id="path934-3" />
          <path
             d="m 229.88051,125.94158 h -0.727 v -12.08644 h 0.727 v 5.43436 h 1.92656 q 1.07233,0 1.63576,-0.41803 0.56343,-0.4362 1.09051,-1.61759 l 1.49036,-3.39874 h 0.83605 l -1.61758,3.61684 q -0.63613,1.43584 -1.59941,1.96292 1.52671,0.34532 2.19919,1.29043 0.4362,0.61795 0.56342,1.43583 0.0545,0.41803 0.0545,1.56306 v 0.76335 q 0,0.96328 0.0909,1.45401 h -0.727 q -0.0909,-0.56343 -0.0909,-1.29043 v -1.01781 q 0,-1.29043 -0.14541,-1.74481 -0.59977,-1.92656 -3.01706,-1.92656 h -2.68992 z"
             style="font-style:normal;font-variant:normal;font-weight:normal;font-stretch:normal;font-size:18.1751px;line-height:1.25;font-family:Dessau;-inkscape-font-specification:Dessau;fill:#000000;fill-opacity:1;stroke:none;stroke-width:0.45173"
             id="path936-2" />
          <path
             d="m 239.98586,125.94158 h -0.70883 v -8.06974 h 0.70883 z m -0.34533,-10.99593 q 0.27263,0 0.45438,0.19992 0.19992,0.19993 0.19992,0.47255 0,0.27263 -0.19992,0.47256 -0.19993,0.18175 -0.47255,0.18175 -0.25446,0 -0.45438,-0.19993 -0.19993,-0.19992 -0.19993,-0.45438 0,-0.67247 0.67248,-0.67247 z"
             style="font-style:normal;font-variant:normal;font-weight:normal;font-stretch:normal;font-size:18.1751px;line-height:1.25;font-family:Dessau;-inkscape-font-specification:Dessau;fill:#000000;fill-opacity:1;stroke:none;stroke-width:0.45173"
             id="path938-0" />
          <path
             d="m 249.83675,122.10664 h 0.67248 q -0.0909,1.5994 -0.94511,2.58086 -1.18138,1.38131 -3.12612,1.38131 -1.74481,0 -2.98071,-1.21773 -1.21773,-1.21774 -1.21773,-2.94437 0,-1.72664 1.18138,-2.92619 1.19955,-1.21773 2.88984,-1.21773 2.16284,0 3.52597,1.96291 l -5.67063,3.87129 -0.32715,-0.52707 4.97997,-3.41692 q -0.85423,-1.23591 -2.54451,-1.23591 -1.38131,0 -2.34459,0.99963 -0.96328,0.99963 -0.96328,2.39911 0,1.43584 1.03598,2.52634 1.03598,1.07233 2.43546,1.07233 1.43584,0 2.39912,-0.9451 0.96328,-0.96328 0.99963,-2.36276 z"
             style="font-style:normal;font-variant:normal;font-weight:normal;font-stretch:normal;font-size:18.1751px;line-height:1.25;font-family:Dessau;-inkscape-font-specification:Dessau;fill:#000000;fill-opacity:1;stroke:none;stroke-width:0.45173"
             id="path941-1" />
          <path
             d="m 253.1264,125.94158 h -0.70883 v -12.08644 h 0.70883 z"
             style="font-style:normal;font-variant:normal;font-weight:normal;font-stretch:normal;font-size:18.1751px;line-height:1.25;font-family:Dessau;-inkscape-font-specification:Dessau;fill:#000000;fill-opacity:1;stroke:none;stroke-width:0.45173"
             id="path943-7" />
          <path
             d="m 260.48729,125.30545 v 0.63613 h -0.81787 q -2.09014,0 -3.217,-1.12685 -1.2359,-1.23591 -1.2359,-2.88985 0,-1.92656 1.50853,-3.16246 1.0905,-0.89058 2.90801,-0.89058 h 0.85423 v 0.63613 h -0.85423 q -1.65393,0 -2.67173,0.9451 -1.01781,0.94511 -1.01781,2.50816 0,1.61759 1.16321,2.56269 0.96328,0.78153 2.48998,0.78153 z"
             style="font-style:normal;font-variant:normal;font-weight:normal;font-stretch:normal;font-size:18.1751px;line-height:1.25;font-family:Dessau;-inkscape-font-specification:Dessau;fill:#000000;fill-opacity:1;stroke:none;stroke-width:0.45173"
             id="path945-7" />
          <path
             d="m 269.53848,122.10664 h 0.67248 q -0.0909,1.5994 -0.9451,2.58086 -1.18138,1.38131 -3.12612,1.38131 -1.74481,0 -2.98072,-1.21773 -1.21773,-1.21774 -1.21773,-2.94437 0,-1.72664 1.18138,-2.92619 1.19956,-1.21773 2.88985,-1.21773 2.16283,0 3.52596,1.96291 l -5.67063,3.87129 -0.32715,-0.52707 4.97998,-3.41692 q -0.85423,-1.23591 -2.54452,-1.23591 -1.3813,0 -2.34458,0.99963 -0.96328,0.99963 -0.96328,2.39911 0,1.43584 1.03598,2.52634 1.03598,1.07233 2.43546,1.07233 1.43583,0 2.39911,-0.9451 0.96328,-0.96328 0.99963,-2.36276 z"
             style="font-style:normal;font-variant:normal;font-weight:normal;font-stretch:normal;font-size:18.1751px;line-height:1.25;font-family:Dessau;-inkscape-font-specification:Dessau;fill:#000000;fill-opacity:1;stroke:none;stroke-width:0.45173"
             id="path947-9" />
        </g>
        <g
           id="t_centrum-2"
           transform="matrix(0.80337886,0,0,0.80337886,6.4678594,85.009204)">
          <path
             d="m 54.414911,106.56697 v 0.67874 h -1.37583 q -2.604905,0 -4.365967,-1.74272 -1.742718,-1.74271 -1.742718,-4.31093 0,-2.604905 1.852784,-4.365967 1.871129,-1.779407 4.604445,-1.779407 h 1.027286 v 0.678743 h -0.898875 q -2.513183,0 -4.164179,1.559274 -1.650996,1.540929 -1.650996,3.889017 0,2.6049 1.907817,4.18252 1.467552,1.21073 3.705569,1.21073 z"
             style="font-style:normal;font-variant:normal;font-weight:normal;font-stretch:normal;font-size:18.3444px;line-height:1.25;font-family:Dessau;-inkscape-font-specification:Dessau;fill:#000000;fill-opacity:1;stroke:none;stroke-width:0.451109"
             id="path847-4" />
          <path
             d="m 62.871659,103.37504 h 0.678743 q -0.09172,1.61431 -0.953909,2.60491 -1.192386,1.39417 -3.155237,1.39417 -1.761062,0 -3.008482,-1.22907 -1.229074,-1.22908 -1.229074,-2.97179 0,-1.74272 1.192386,-2.95345 1.21073,-1.229078 2.916759,-1.229078 2.182984,0 3.558814,1.981198 l -5.723453,3.90735 -0.330199,-0.53198 5.026365,-3.44875 q -0.862186,-1.247419 -2.568216,-1.247419 -1.394174,0 -2.366427,1.008939 -0.972253,1.00894 -0.972253,2.42146 0,1.44921 1.04563,2.54988 1.045631,1.08231 2.45815,1.08231 1.449208,0 2.421461,-0.9539 0.972253,-0.97226 1.008942,-2.38478 z"
             style="font-style:normal;font-variant:normal;font-weight:normal;font-stretch:normal;font-size:18.3444px;line-height:1.25;font-family:Dessau;-inkscape-font-specification:Dessau;fill:#000000;fill-opacity:1;stroke:none;stroke-width:0.451109"
             id="path849-9" />
          <path
             d="m 72.098835,107.24571 h -0.715431 v -4.32928 q 0,-1.50424 -0.587021,-2.2747 -0.752121,-1.008944 -2.054573,-1.008944 -1.430863,0 -2.201328,1.174044 -0.476955,0.73377 -0.476955,2.23801 v 4.20087 h -0.715431 v -4.65948 q 0,-1.55927 0.953909,-2.586556 0.972253,-1.027286 2.439805,-1.027286 1.449207,0 2.403116,1.008942 0.953909,1.00894 0.953909,2.54987 z"
             style="font-style:normal;font-variant:normal;font-weight:normal;font-stretch:normal;font-size:18.3444px;line-height:1.25;font-family:Dessau;-inkscape-font-specification:Dessau;fill:#000000;fill-opacity:1;stroke:none;stroke-width:0.451109"
             id="path851-5" />
          <path
             d="m 75.364128,99.742853 v 4.787887 q 0,1.24742 0.587021,1.70603 0.45861,0.36689 1.632652,0.36689 h 0.733776 v 0.64205 h -0.642054 q -0.898876,0 -1.265764,-0.0734 -0.623709,-0.12841 -1.100664,-0.56867 -0.660398,-0.60537 -0.660398,-2.18299 v -7.686299 h 0.715431 v 2.366428 h 2.953449 v 0.642054 z"
             style="font-style:normal;font-variant:normal;font-weight:normal;font-stretch:normal;font-size:18.3444px;line-height:1.25;font-family:Dessau;-inkscape-font-specification:Dessau;fill:#000000;fill-opacity:1;stroke:none;stroke-width:0.451109"
             id="path853-3" />
          <path
             d="m 80.537216,107.24571 h -0.715432 v -8.144911 h 0.715432 v 1.559271 q 0.953908,-1.687682 2.384772,-1.687682 0.183444,0 0.862186,0.07338 v 0.660399 l -0.183444,-0.01834 q -0.550332,-0.05503 -0.642054,-0.05503 -1.192386,0 -1.926162,1.210733 -0.495298,0.80715 -0.495298,2.31139 z"
             style="font-style:normal;font-variant:normal;font-weight:normal;font-stretch:normal;font-size:18.3444px;line-height:1.25;font-family:Dessau;-inkscape-font-specification:Dessau;fill:#000000;fill-opacity:1;stroke:none;stroke-width:0.451109"
             id="path855-6" />
          <path
             d="m 91.397066,99.100799 h 0.715431 v 4.659481 q 0,1.55927 -0.972253,2.58656 -0.953909,1.02728 -2.421461,1.02728 -1.449207,0 -2.403116,-1.00894 -0.953909,-1.00894 -0.953909,-2.54987 v -4.714511 h 0.715432 v 4.329281 q 0,1.52258 0.587021,2.2747 0.788809,1.00894 2.072917,1.00894 1.412519,0 2.182983,-1.17404 0.476955,-0.73377 0.476955,-2.23801 z"
             style="font-style:normal;font-variant:normal;font-weight:normal;font-stretch:normal;font-size:18.3444px;line-height:1.25;font-family:Dessau;-inkscape-font-specification:Dessau;fill:#000000;fill-opacity:1;stroke:none;stroke-width:0.451109"
             id="path857-4" />
          <path
             d="m 105.63229,107.24571 h -0.71544 v -5.09974 q 0,-1.11901 -0.55033,-1.74272 -0.67874,-0.770464 -1.68768,-0.770464 -1.11901,0 -1.77941,0.917224 -0.45861,0.64205 -0.45861,1.9445 v 4.7512 h -0.715432 v -4.89795 q 0,-1.26577 -0.513643,-1.88948 -0.678743,-0.825494 -1.742718,-0.825494 -1.192386,0 -1.83444,0.917224 -0.385232,0.55033 -0.385232,1.85278 v 4.84292 h -0.715432 v -4.97133 q 0,-1.59596 0.733776,-2.384772 0.862187,-0.91722 2.164639,-0.91722 1.761063,0 2.641592,1.724372 0.9906,-1.724372 2.60491,-1.724372 1.48589,0 2.34808,1.100662 0.60537,0.77047 0.60537,2.03623 z"
             style="font-style:normal;font-variant:normal;font-weight:normal;font-stretch:normal;font-size:18.3444px;line-height:1.25;font-family:Dessau;-inkscape-font-specification:Dessau;fill:#000000;fill-opacity:1;stroke:none;stroke-width:0.451109"
             id="path859-3" />
        </g>
        <g
           id="t_symulacji-8"
           transform="matrix(0.80337886,0,0,0.80337886,6.4678594,85.009204)">
          <path
             d="m 114.60973,107.24571 v -0.67874 h 4.29259 q 1.44921,0 2.09126,-0.47695 0.84384,-0.62371 0.84384,-1.79776 0,-1.08232 -0.78881,-1.7794 -0.53198,-0.45861 -1.90781,-0.89888 l -1.50425,-0.47695 q -1.39417,-0.44027 -2.12795,-1.08232 -0.93556,-0.807156 -0.93556,-2.146298 0,-1.50424 1.11901,-2.274705 0.84384,-0.587021 2.49484,-0.587021 h 3.77894 v 0.678743 h -3.70557 q -1.50424,0 -2.18298,0.513643 -0.73378,0.550332 -0.73378,1.614307 0,0.953909 0.56868,1.522586 0.56868,0.550332 1.9812,1.008945 l 1.46755,0.47695 q 1.70603,0.55033 2.36643,1.22908 0.88053,0.89887 0.88053,2.21967 0,1.50424 -1.17404,2.34808 -0.8255,0.58702 -2.38478,0.58702 z"
             style="font-style:normal;font-variant:normal;font-weight:normal;font-stretch:normal;font-size:18.3444px;line-height:1.25;font-family:Dessau;-inkscape-font-specification:Dessau;fill:#000000;fill-opacity:1;stroke:none;stroke-width:0.451109"
             id="path861-3" />
          <path
             d="m 130.56933,99.100799 h 0.71543 v 4.622791 q 0,1.99954 -1.19238,2.97179 -0.67875,0.55033 -1.70603,0.71543 v 3.9257 h -0.71544 v -3.9257 q -1.39417,-0.0734 -2.20132,-1.02728 -0.78881,-0.97226 -0.78881,-2.53153 v -4.751201 h 0.71543 v 4.769541 q 0,1.3208 0.58702,1.9812 0.77046,0.86218 1.98119,0.86218 1.35749,0 2.09127,-0.99059 0.51364,-0.67875 0.51364,-1.9812 z"
             style="font-style:normal;font-variant:normal;font-weight:normal;font-stretch:normal;font-size:18.3444px;line-height:1.25;font-family:Dessau;-inkscape-font-specification:Dessau;fill:#000000;fill-opacity:1;stroke:none;stroke-width:0.451109"
             id="path863-4" />
          <path
             d="m 144.80456,107.24571 h -0.71543 v -5.09974 q 0,-1.11901 -0.55033,-1.74272 -0.67875,-0.770464 -1.68769,-0.770464 -1.11901,0 -1.7794,0.917224 -0.45861,0.64205 -0.45861,1.9445 v 4.7512 h -0.71544 v -4.89795 q 0,-1.26577 -0.51364,-1.88948 -0.67874,-0.825494 -1.74272,-0.825494 -1.19238,0 -1.83444,0.917224 -0.38523,0.55033 -0.38523,1.85278 v 4.84292 h -0.71543 v -4.97133 q 0,-1.59596 0.73377,-2.384772 0.86219,-0.91722 2.16464,-0.91722 1.76107,0 2.6416,1.724372 0.99059,-1.724372 2.6049,-1.724372 1.4859,0 2.34809,1.100662 0.60536,0.77047 0.60536,2.03623 z"
             style="font-style:normal;font-variant:normal;font-weight:normal;font-stretch:normal;font-size:18.3444px;line-height:1.25;font-family:Dessau;-inkscape-font-specification:Dessau;fill:#000000;fill-opacity:1;stroke:none;stroke-width:0.451109"
             id="path865-1" />
          <path
             d="m 153.27965,99.100799 h 0.71543 v 4.659481 q 0,1.55927 -0.97225,2.58656 -0.95391,1.02728 -2.42146,1.02728 -1.44921,0 -2.40312,-1.00894 -0.9539,-1.00894 -0.9539,-2.54987 v -4.714511 h 0.71543 v 4.329281 q 0,1.52258 0.58702,2.2747 0.78881,1.00894 2.07292,1.00894 1.41251,0 2.18298,-1.17404 0.47695,-0.73377 0.47695,-2.23801 z"
             style="font-style:normal;font-variant:normal;font-weight:normal;font-stretch:normal;font-size:18.3444px;line-height:1.25;font-family:Dessau;-inkscape-font-specification:Dessau;fill:#000000;fill-opacity:1;stroke:none;stroke-width:0.451109"
             id="path867-2" />
          <path
             d="m 157.24201,107.24571 h -0.71543 V 95.046686 h 0.71543 z"
             style="font-style:normal;font-variant:normal;font-weight:normal;font-stretch:normal;font-size:18.3444px;line-height:1.25;font-family:Dessau;-inkscape-font-specification:Dessau;fill:#000000;fill-opacity:1;stroke:none;stroke-width:0.451109"
             id="path869-1" />
          <path
             d="m 167.73498,107.24571 h -0.71543 v -3.54047 q 0,-1.83444 -0.95391,-2.95345 -0.95391,-1.119004 -2.53153,-1.119004 -1.41251,0 -2.4398,1.045634 -1.00894,1.04563 -1.00894,2.51318 0,1.44921 1.00894,2.49484 1.02729,1.02728 2.45815,1.02728 1.54093,0 2.86173,-1.33914 v 0.84385 q -1.26577,1.15569 -2.88008,1.15569 -1.76106,0 -2.97179,-1.21073 -1.21073,-1.21073 -1.21073,-2.97179 0,-1.72437 1.22908,-2.97179 1.24742,-1.247422 2.97179,-1.247422 1.77941,0 2.97179,1.284112 1.21073,1.26576 1.21073,3.13689 z"
             style="font-style:normal;font-variant:normal;font-weight:normal;font-stretch:normal;font-size:18.3444px;line-height:1.25;font-family:Dessau;-inkscape-font-specification:Dessau;fill:#000000;fill-opacity:1;stroke:none;stroke-width:0.451109"
             id="path871-2" />
          <path
             d="m 175.03603,106.60366 v 0.64205 h -0.8255 q -2.1096,0 -3.24696,-1.13735 -1.24742,-1.24742 -1.24742,-2.91676 0,-1.94451 1.52259,-3.191926 1.10066,-0.898875 2.9351,-0.898875 h 0.86219 v 0.642054 h -0.86219 q -1.66934,0 -2.69662,0.953907 -1.02729,0.95391 -1.02729,2.53153 0,1.63265 1.17404,2.58656 0.97226,0.78881 2.51318,0.78881 z"
             style="font-style:normal;font-variant:normal;font-weight:normal;font-stretch:normal;font-size:18.3444px;line-height:1.25;font-family:Dessau;-inkscape-font-specification:Dessau;fill:#000000;fill-opacity:1;stroke:none;stroke-width:0.451109"
             id="path873-5" />
          <path
             d="M 177.80601,99.100799 V 108.273 q 0,1.50424 -0.75212,2.25636 -0.73377,0.77046 -2.38477,0.77046 h -0.42192 v -0.64205 h 0.34854 q 1.35749,0 1.92617,-0.55033 0.56867,-0.53199 0.56867,-1.83444 v -9.172201 z m -0.3302,-2.953449 q 0.27517,0 0.45861,0.201788 0.20179,0.201789 0.20179,0.476955 0,0.256821 -0.20179,0.45861 -0.20178,0.201788 -0.47695,0.201788 -0.25682,0 -0.45861,-0.201788 -0.20179,-0.201789 -0.20179,-0.45861 0,-0.678743 0.67874,-0.678743 z"
             style="font-style:normal;font-variant:normal;font-weight:normal;font-stretch:normal;font-size:18.3444px;line-height:1.25;font-family:Dessau;-inkscape-font-specification:Dessau;fill:#000000;fill-opacity:1;stroke:none;stroke-width:0.451109"
             id="path875-5" />
          <path
             d="m 181.51155,107.24571 h -0.71543 v -8.144911 h 0.71543 z m -0.34854,-11.09836 q 0.27517,0 0.45861,0.201788 0.20179,0.201789 0.20179,0.476955 0,0.275166 -0.20179,0.476954 -0.20179,0.183444 -0.47695,0.183444 -0.25683,0 -0.45861,-0.201788 -0.20179,-0.201789 -0.20179,-0.45861 0,-0.678743 0.67874,-0.678743 z"
             style="font-style:normal;font-variant:normal;font-weight:normal;font-stretch:normal;font-size:18.3444px;line-height:1.25;font-family:Dessau;-inkscape-font-specification:Dessau;fill:#000000;fill-opacity:1;stroke:none;stroke-width:0.451109"
             id="path877-1" />
        </g>
        <g
           id="t_medycznej-3"
           transform="matrix(0.80337886,0,0,0.80337886,6.4678594,85.009204)">
          <path
             d="m 204.30234,107.24571 h -0.73378 l -1.35748,-11.006638 q -0.0734,-0.568676 -0.23848,-0.568676 -0.14676,0 -0.31186,0.550332 l -3.1002,10.236172 q -0.27517,0.88053 -0.8255,0.88053 -0.62371,0 -0.97225,-1.19238 L 193.791,95.945562 q -0.0734,-0.275166 -0.22014,-0.275166 -0.18344,0 -0.22013,0.29351 l -1.46755,11.281804 h -0.75212 l 1.46755,-11.043327 q 0.0734,-0.550332 0.22013,-0.807153 0.23848,-0.421922 0.77047,-0.421922 0.67874,0 0.9906,1.045631 l 2.97179,10.217831 q 0.0917,0.3302 0.18344,0.3302 0.0917,0 0.20179,-0.38523 L 200.982,96.110661 q 0.34854,-1.137353 1.00894,-1.137353 0.78881,0 0.95391,1.284108 z"
             style="font-style:normal;font-variant:normal;font-weight:normal;font-stretch:normal;font-size:18.3444px;line-height:1.25;font-family:Dessau;-inkscape-font-specification:Dessau;fill:#000000;fill-opacity:1;stroke:none;stroke-width:0.451109"
             id="path879-0" />
          <path
             d="m 213.85976,103.37504 h 0.67875 q -0.0917,1.61431 -0.95391,2.60491 -1.19239,1.39417 -3.15524,1.39417 -1.76106,0 -3.00848,-1.22907 -1.22908,-1.22908 -1.22908,-2.97179 0,-1.74272 1.19239,-2.95345 1.21073,-1.229078 2.91676,-1.229078 2.18298,0 3.55881,1.981198 l -5.72345,3.90735 -0.3302,-0.53198 5.02637,-3.44875 q -0.86219,-1.247419 -2.56822,-1.247419 -1.39417,0 -2.36643,1.008939 -0.97225,1.00894 -0.97225,2.42146 0,1.44921 1.04563,2.54988 1.04563,1.08231 2.45815,1.08231 1.44921,0 2.42146,-0.9539 0.97226,-0.97226 1.00894,-2.38478 z"
             style="font-style:normal;font-variant:normal;font-weight:normal;font-stretch:normal;font-size:18.3444px;line-height:1.25;font-family:Dessau;-inkscape-font-specification:Dessau;fill:#000000;fill-opacity:1;stroke:none;stroke-width:0.451109"
             id="path881-9" />
          <path
             d="m 224.33439,95.046686 v 7.722994 q 0,1.99954 -1.10067,3.22861 -1.22907,1.37583 -3.1002,1.37583 -1.74272,0 -2.9718,-1.22907 -1.22907,-1.24742 -1.22907,-3.02683 0,-1.70603 1.22907,-2.91676 1.22908,-1.229072 2.95345,-1.229072 1.651,0 2.88007,1.174042 v 0.86219 q -1.43086,-1.375834 -2.86172,-1.375834 -1.44921,0 -2.45815,1.027284 -1.00894,1.02729 -1.00894,2.51319 0,1.4492 1.00894,2.49483 1.02728,1.04563 2.4398,1.04563 1.66934,0 2.77001,-1.41251 0.73377,-0.95391 0.73377,-2.75166 v -7.502864 z"
             style="font-style:normal;font-variant:normal;font-weight:normal;font-stretch:normal;font-size:18.3444px;line-height:1.25;font-family:Dessau;-inkscape-font-specification:Dessau;fill:#000000;fill-opacity:1;stroke:none;stroke-width:0.451109"
             id="path883-2" />
          <path
             d="m 232.62603,99.100799 h 0.71543 v 4.622791 q 0,1.99954 -1.19239,2.97179 -0.67874,0.55033 -1.70603,0.71543 v 3.9257 h -0.71543 v -3.9257 q -1.39417,-0.0734 -2.20133,-1.02728 -0.78881,-0.97226 -0.78881,-2.53153 v -4.751201 h 0.71544 v 4.769541 q 0,1.3208 0.58702,1.9812 0.77046,0.86218 1.98119,0.86218 1.35749,0 2.09126,-0.99059 0.51365,-0.67875 0.51365,-1.9812 z"
             style="font-style:normal;font-variant:normal;font-weight:normal;font-stretch:normal;font-size:18.3444px;line-height:1.25;font-family:Dessau;-inkscape-font-specification:Dessau;fill:#000000;fill-opacity:1;stroke:none;stroke-width:0.451109"
             id="path885-2" />
          <path
             d="m 240.66085,106.60366 v 0.64205 h -0.8255 q -2.1096,0 -3.24696,-1.13735 -1.24742,-1.24742 -1.24742,-2.91676 0,-1.94451 1.52259,-3.191926 1.10066,-0.898875 2.9351,-0.898875 h 0.86219 v 0.642054 h -0.86219 q -1.66934,0 -2.69662,0.953907 -1.02729,0.95391 -1.02729,2.53153 0,1.63265 1.17404,2.58656 0.97226,0.78881 2.51319,0.78881 z"
             style="font-style:normal;font-variant:normal;font-weight:normal;font-stretch:normal;font-size:18.3444px;line-height:1.25;font-family:Dessau;-inkscape-font-specification:Dessau;fill:#000000;fill-opacity:1;stroke:none;stroke-width:0.451109"
             id="path887-8" />
          <path
             d="m 248.03527,106.60366 v 0.64205 h -4.89795 q -0.58702,0 -0.8255,-0.1651 -0.29351,-0.20179 -0.29351,-0.60536 0,-0.36689 0.31185,-0.73378 l 4.45769,-5.37491 q 0.22013,-0.25682 0.22013,-0.403575 0,-0.220132 -0.45861,-0.220132 h -4.21921 v -0.642054 h 4.36597 q 1.04563,0 1.04563,0.825498 0,0.348543 -0.38523,0.825493 l -4.38431,5.37491 q -0.1651,0.20179 -0.1651,0.31186 0,0.1651 0.55033,0.1651 z"
             style="font-style:normal;font-variant:normal;font-weight:normal;font-stretch:normal;font-size:18.3444px;line-height:1.25;font-family:Dessau;-inkscape-font-specification:Dessau;fill:#000000;fill-opacity:1;stroke:none;stroke-width:0.451109"
             id="path889-9" />
          <path
             d="m 256.65713,107.24571 h -0.71543 v -4.32928 q 0,-1.50424 -0.58702,-2.2747 -0.75212,-1.008944 -2.05458,-1.008944 -1.43086,0 -2.20132,1.174044 -0.47696,0.73377 -0.47696,2.23801 v 4.20087 h -0.71543 v -4.65948 q 0,-1.55927 0.95391,-2.586556 0.97225,-1.027286 2.4398,-1.027286 1.44921,0 2.40312,1.008942 0.95391,1.00894 0.95391,2.54987 z"
             style="font-style:normal;font-variant:normal;font-weight:normal;font-stretch:normal;font-size:18.3444px;line-height:1.25;font-family:Dessau;-inkscape-font-specification:Dessau;fill:#000000;fill-opacity:1;stroke:none;stroke-width:0.451109"
             id="path891-2" />
          <path
             d="m 266.34296,103.37504 h 0.67875 q -0.0917,1.61431 -0.95391,2.60491 -1.19239,1.39417 -3.15524,1.39417 -1.76106,0 -3.00848,-1.22907 -1.22907,-1.22908 -1.22907,-2.97179 0,-1.74272 1.19238,-2.95345 1.21073,-1.229078 2.91676,-1.229078 2.18298,0 3.55881,1.981198 l -5.72345,3.90735 -0.3302,-0.53198 5.02637,-3.44875 q -0.86219,-1.247419 -2.56822,-1.247419 -1.39417,0 -2.36643,1.008939 -0.97225,1.00894 -0.97225,2.42146 0,1.44921 1.04563,2.54988 1.04563,1.08231 2.45815,1.08231 1.44921,0 2.42146,-0.9539 0.97226,-0.97226 1.00894,-2.38478 z"
             style="font-style:normal;font-variant:normal;font-weight:normal;font-stretch:normal;font-size:18.3444px;line-height:1.25;font-family:Dessau;-inkscape-font-specification:Dessau;fill:#000000;fill-opacity:1;stroke:none;stroke-width:0.451109"
             id="path893-4" />
          <path
             d="M 269.66326,99.100799 V 108.273 q 0,1.50424 -0.75212,2.25636 -0.73377,0.77046 -2.38477,0.77046 h -0.42192 v -0.64205 h 0.34854 q 1.35749,0 1.92617,-0.55033 0.56867,-0.53199 0.56867,-1.83444 v -9.172201 z m -0.3302,-2.953449 q 0.27517,0 0.45861,0.201788 0.20179,0.201789 0.20179,0.476955 0,0.256821 -0.20179,0.45861 -0.20178,0.201788 -0.47695,0.201788 -0.25682,0 -0.45861,-0.201788 -0.20179,-0.201789 -0.20179,-0.45861 0,-0.678743 0.67874,-0.678743 z"
             style="font-style:normal;font-variant:normal;font-weight:normal;font-stretch:normal;font-size:18.3444px;line-height:1.25;font-family:Dessau;-inkscape-font-specification:Dessau;fill:#000000;fill-opacity:1;stroke:none;stroke-width:0.451109"
             id="path895-3" />
        </g>
        <path
           style="fill:none;stroke:#007d00;stroke-width:0.572231;stroke-linecap:round;stroke-linejoin:round;stroke-miterlimit:4;stroke-dasharray:none;stroke-opacity:1"
           d="M 221.85764,174.95918 H 33.920213"
           id="cardio-3-8"
           sodipodi:nodetypes="cc" />
      </g>
      <g
         id="g1578"
         transform="matrix(0.34697227,0,0,0.34697227,67.04457,-97.587133)">
        <rect
           style="fill:#007d00;fill-opacity:1;stroke:none;stroke-width:0.248788;stroke-linejoin:round;stroke-miterlimit:4;stroke-dasharray:none;stroke-opacity:1"
           id="rect1572"
           width="93.357964"
           height="11.253676"
           x="-30.288095"
           y="135.99626"
           ry="5.6268382" />
        <g
           aria-label="strona nieoficjalna :)"
           id="text1570"
           style="font-style:normal;font-weight:normal;font-size:10.5833px;line-height:1.25;font-family:sans-serif;fill:#ffff00;fill-opacity:1;stroke:#ffff00;stroke-width:0.265;stroke-miterlimit:4;stroke-dasharray:none;stroke-opacity:1">
          <path
             d="m -26.95292,144.04668 v -0.37042 h 2.08491 q 1.111246,0 1.111246,-0.81491 0,-0.67733 -0.96308,-0.92075 l -0.656165,-0.16933 q -0.761997,-0.20109 -1.037163,-0.34925 -0.560915,-0.3175 -0.560915,-0.9525 0,-0.58208 0.476248,-0.89958 0.338666,-0.22225 1.026581,-0.22225 h 1.809744 v 0.37042 h -1.661578 q -0.571498,0 -0.825498,0.11641 -0.402165,0.1905 -0.402165,0.62442 0,0.41275 0.370415,0.62441 0.232833,0.13759 0.910164,0.30692 l 0.656165,0.16933 q 1.280579,0.32808 1.280579,1.25941 0,0.67734 -0.550332,1.02658 -0.317499,0.20109 -1.090079,0.20109 z"
             style="font-style:normal;font-variant:normal;font-weight:normal;font-stretch:normal;font-family:Dessau;-inkscape-font-specification:Dessau;fill:#ffff00;fill-opacity:1;stroke:#ffff00;stroke-width:0.265;stroke-miterlimit:4;stroke-dasharray:none;stroke-opacity:1"
             id="path1580" />
          <path
             d="m -21.798859,139.71811 v 2.76224 q 0,0.71966 0.338666,0.98425 0.264582,0.21166 0.941913,0.21166 h 0.423332 v 0.37042 h -0.370415 q -0.518582,0 -0.730248,-0.0423 -0.359832,-0.0741 -0.634998,-0.32808 -0.380999,-0.34925 -0.380999,-1.25941 v -4.4344 h 0.412749 v 1.36524 h 1.703911 v 0.37042 z"
             style="font-style:normal;font-variant:normal;font-weight:normal;font-stretch:normal;font-family:Dessau;-inkscape-font-specification:Dessau;fill:#ffff00;fill-opacity:1;stroke:#ffff00;stroke-width:0.265;stroke-miterlimit:4;stroke-dasharray:none;stroke-opacity:1"
             id="path1582" />
          <path
             d="m -18.814387,144.04668 h -0.412749 v -4.69899 h 0.412749 v 0.89958 q 0.550331,-0.97366 1.375829,-0.97366 0.105833,0 0.497415,0.0423 v 0.381 l -0.105833,-0.0106 q -0.317499,-0.0318 -0.370416,-0.0318 -0.687914,0 -1.111246,0.6985 -0.285749,0.46566 -0.285749,1.33349 z"
             style="font-style:normal;font-variant:normal;font-weight:normal;font-stretch:normal;font-family:Dessau;-inkscape-font-specification:Dessau;fill:#ffff00;fill-opacity:1;stroke:#ffff00;stroke-width:0.265;stroke-miterlimit:4;stroke-dasharray:none;stroke-opacity:1"
             id="path1584" />
          <path
             d="m -14.178937,139.27361 q 0.973663,0 1.672161,0.71966 0.709081,0.71967 0.709081,1.7145 0,1.00541 -0.709081,1.71449 -0.698498,0.6985 -1.693328,0.6985 -1.005413,0 -1.714495,-0.70908 -0.698497,-0.70908 -0.698497,-1.7145 0,-1.00541 0.709081,-1.71449 0.719664,-0.70908 1.725078,-0.70908 z m 0,0.381 q -0.836081,0 -1.428746,0.60325 -0.582081,0.59266 -0.582081,1.43932 0,0.83608 0.592664,1.43933 0.592665,0.60325 1.407579,0.60325 0.814914,0 1.386413,-0.59266 0.582081,-0.59267 0.582081,-1.43933 0,-0.83608 -0.582081,-1.43933 -0.582082,-0.61383 -1.375829,-0.61383 z"
             style="font-style:normal;font-variant:normal;font-weight:normal;font-stretch:normal;font-family:Dessau;-inkscape-font-specification:Dessau;fill:#ffff00;fill-opacity:1;stroke:#ffff00;stroke-width:0.265;stroke-miterlimit:4;stroke-dasharray:none;stroke-opacity:1"
             id="path1586" />
          <path
             d="m -6.7388792,144.04668 h -0.4127487 v -2.49766 q 0,-0.86783 -0.3386656,-1.31233 -0.4339153,-0.58208 -1.1853295,-0.58208 -0.8254974,0 -1.269996,0.67733 -0.275166,0.42333 -0.275166,1.29116 v 2.42358 h -0.412748 v -2.68816 q 0,-0.89958 0.550331,-1.49225 0.560915,-0.59266 1.407579,-0.59266 0.8360806,0 1.3864122,0.58208 0.5503316,0.58208 0.5503316,1.47108 z"
             style="font-style:normal;font-variant:normal;font-weight:normal;font-stretch:normal;font-family:Dessau;-inkscape-font-specification:Dessau;fill:#ffff00;fill-opacity:1;stroke:#ffff00;stroke-width:0.265;stroke-miterlimit:4;stroke-dasharray:none;stroke-opacity:1"
             id="path1588" />
          <path
             d="M -0.73815441,144.04668 H -1.1509031 v -2.04258 q 0,-1.05833 -0.5503316,-1.70391 -0.5503316,-0.64558 -1.4604953,-0.64558 -0.8149141,0 -1.4075789,0.60325 -0.5820815,0.60324 -0.5820815,1.44991 0,0.83608 0.5820815,1.43933 0.5926648,0.59266 1.4181622,0.59266 0.8889971,0 1.6509947,-0.77258 v 0.48683 q -0.7302477,0.66675 -1.661578,0.66675 -1.0159968,0 -1.7144946,-0.6985 -0.6984977,-0.6985 -0.6984977,-1.71449 0,-0.99483 0.709081,-1.7145 0.7196644,-0.71966 1.7144946,-0.71966 1.02658,0 1.7144945,0.74083 0.69849779,0.73025 0.69849779,1.80974 z"
             style="font-style:normal;font-variant:normal;font-weight:normal;font-stretch:normal;font-family:Dessau;-inkscape-font-specification:Dessau;fill:#ffff00;fill-opacity:1;stroke:#ffff00;stroke-width:0.265;stroke-miterlimit:4;stroke-dasharray:none;stroke-opacity:1"
             id="path1590" />
          <path
             d="M 7.1887217,144.04668 H 6.775973 v -2.49766 q 0,-0.86783 -0.3386656,-1.31233 -0.4339153,-0.58208 -1.1853296,-0.58208 -0.8254974,0 -1.2699959,0.67733 -0.2751658,0.42333 -0.2751658,1.29116 v 2.42358 H 3.2940674 v -2.68816 q 0,-0.89958 0.5503316,-1.49225 0.5609148,-0.59266 1.4075788,-0.59266 0.8360807,0 1.3864123,0.58208 0.5503316,0.58208 0.5503316,1.47108 z"
             style="font-style:normal;font-variant:normal;font-weight:normal;font-stretch:normal;font-family:Dessau;-inkscape-font-specification:Dessau;fill:#ffff00;fill-opacity:1;stroke:#ffff00;stroke-width:0.265;stroke-miterlimit:4;stroke-dasharray:none;stroke-opacity:1"
             id="path1592" />
          <path
             d="M 9.2630442,144.04668 H 8.8502955 v -4.69899 h 0.4127487 z m -0.2010827,-6.4029 q 0.1587495,0 0.2645825,0.11642 0.1164163,0.11641 0.1164163,0.27516 0,0.15875 -0.1164163,0.27517 -0.1164163,0.10583 -0.2751658,0.10583 -0.1481662,0 -0.2645825,-0.11642 -0.1164163,-0.11641 -0.1164163,-0.26458 0,-0.39158 0.3915821,-0.39158 z"
             style="font-style:normal;font-variant:normal;font-weight:normal;font-stretch:normal;font-family:Dessau;-inkscape-font-specification:Dessau;fill:#ffff00;fill-opacity:1;stroke:#ffff00;stroke-width:0.265;stroke-miterlimit:4;stroke-dasharray:none;stroke-opacity:1"
             id="path1594" />
          <path
             d="m 14.99918,141.8136 h 0.391583 q -0.05292,0.93133 -0.550332,1.50283 -0.687915,0.80433 -1.820328,0.80433 -1.015996,0 -1.735661,-0.70908 -0.709081,-0.70908 -0.709081,-1.7145 0,-1.00541 0.687915,-1.70391 0.698497,-0.70908 1.682744,-0.70908 1.259413,0 2.05316,1.143 l -3.301989,2.25424 -0.190499,-0.30691 2.899824,-1.98967 q -0.497415,-0.71966 -1.481662,-0.71966 -0.804331,0 -1.365246,0.58208 -0.560915,0.58208 -0.560915,1.397 0,0.83608 0.603248,1.47108 0.603248,0.62441 1.418162,0.62441 0.836081,0 1.396996,-0.55033 0.560915,-0.56092 0.582081,-1.37583 z"
             style="font-style:normal;font-variant:normal;font-weight:normal;font-stretch:normal;font-family:Dessau;-inkscape-font-specification:Dessau;fill:#ffff00;fill-opacity:1;stroke:#ffff00;stroke-width:0.265;stroke-miterlimit:4;stroke-dasharray:none;stroke-opacity:1"
             id="path1596" />
          <path
             d="m 18.629237,139.27361 q 0.973663,0 1.672161,0.71966 0.709081,0.71967 0.709081,1.7145 0,1.00541 -0.709081,1.71449 -0.698498,0.6985 -1.693328,0.6985 -1.005413,0 -1.714494,-0.70908 -0.698498,-0.70908 -0.698498,-1.7145 0,-1.00541 0.709081,-1.71449 0.719664,-0.70908 1.725078,-0.70908 z m 0,0.381 q -0.836081,0 -1.428746,0.60325 -0.582081,0.59266 -0.582081,1.43932 0,0.83608 0.592665,1.43933 0.592664,0.60325 1.407578,0.60325 0.814915,0 1.386413,-0.59266 0.582081,-0.59267 0.582081,-1.43933 0,-0.83608 -0.582081,-1.43933 -0.582082,-0.61383 -1.375829,-0.61383 z"
             style="font-style:normal;font-variant:normal;font-weight:normal;font-stretch:normal;font-family:Dessau;-inkscape-font-specification:Dessau;fill:#ffff00;fill-opacity:1;stroke:#ffff00;stroke-width:0.265;stroke-miterlimit:4;stroke-dasharray:none;stroke-opacity:1"
             id="path1598" />
          <path
             d="m 22.650887,144.04668 h -0.412748 v -5.21757 q 0,-1.82033 1.86266,-1.82033 h 0.507999 v 0.37042 h -0.465666 q -0.793747,0 -1.164162,0.39158 -0.328083,0.34925 -0.328083,1.09008 v 0.48683 h 1.957911 v 0.37042 h -1.957911 z"
             style="font-style:normal;font-variant:normal;font-weight:normal;font-stretch:normal;font-family:Dessau;-inkscape-font-specification:Dessau;fill:#ffff00;fill-opacity:1;stroke:#ffff00;stroke-width:0.265;stroke-miterlimit:4;stroke-dasharray:none;stroke-opacity:1"
             id="path1600" />
          <path
             d="m 26.005792,144.04668 h -0.412748 v -4.69899 h 0.412748 z m -0.201082,-6.4029 q 0.158749,0 0.264582,0.11642 0.116417,0.11641 0.116417,0.27516 0,0.15875 -0.116417,0.27517 -0.116416,0.10583 -0.275166,0.10583 -0.148166,0 -0.264582,-0.11642 -0.116416,-0.11641 -0.116416,-0.26458 0,-0.39158 0.391582,-0.39158 z"
             style="font-style:normal;font-variant:normal;font-weight:normal;font-stretch:normal;font-family:Dessau;-inkscape-font-specification:Dessau;fill:#ffff00;fill-opacity:1;stroke:#ffff00;stroke-width:0.265;stroke-miterlimit:4;stroke-dasharray:none;stroke-opacity:1"
             id="path1602" />
          <path
             d="m 30.387266,143.67626 v 0.37042 h -0.476248 q -1.21708,0 -1.873244,-0.65617 -0.719665,-0.71966 -0.719665,-1.68274 0,-1.12183 0.878414,-1.8415 0.634998,-0.51858 1.693328,-0.51858 h 0.497415 v 0.37042 h -0.497415 q -0.96308,0 -1.555745,0.55033 -0.592665,0.55033 -0.592665,1.46049 0,0.94192 0.677332,1.49225 0.560914,0.45508 1.449912,0.45508 z"
             style="font-style:normal;font-variant:normal;font-weight:normal;font-stretch:normal;font-family:Dessau;-inkscape-font-specification:Dessau;fill:#ffff00;fill-opacity:1;stroke:#ffff00;stroke-width:0.265;stroke-miterlimit:4;stroke-dasharray:none;stroke-opacity:1"
             id="path1604" />
          <path
             d="m 31.985333,139.34769 v 5.29165 q 0,0.86783 -0.433915,1.30175 -0.423332,0.4445 -1.375829,0.4445 h -0.243416 v -0.37042 h 0.201083 q 0.783164,0 1.111246,-0.3175 0.328083,-0.30691 0.328083,-1.05833 v -5.29165 z m -0.190499,-1.70391 q 0.158749,0 0.264582,0.11642 0.116417,0.11641 0.116417,0.27516 0,0.14817 -0.116417,0.26458 -0.116416,0.11642 -0.275165,0.11642 -0.148167,0 -0.264583,-0.11642 -0.116416,-0.11641 -0.116416,-0.26458 0,-0.39158 0.391582,-0.39158 z"
             style="font-style:normal;font-variant:normal;font-weight:normal;font-stretch:normal;font-family:Dessau;-inkscape-font-specification:Dessau;fill:#ffff00;fill-opacity:1;stroke:#ffff00;stroke-width:0.265;stroke-miterlimit:4;stroke-dasharray:none;stroke-opacity:1"
             id="path1606" />
          <path
             d="m 38.049548,144.04668 h -0.412749 v -2.04258 q 0,-1.05833 -0.550331,-1.70391 -0.550332,-0.64558 -1.460495,-0.64558 -0.814915,0 -1.407579,0.60325 -0.582082,0.60324 -0.582082,1.44991 0,0.83608 0.582082,1.43933 0.592664,0.59266 1.418162,0.59266 0.888997,0 1.650995,-0.77258 v 0.48683 q -0.730248,0.66675 -1.661578,0.66675 -1.015997,0 -1.714495,-0.6985 -0.698498,-0.6985 -0.698498,-1.71449 0,-0.99483 0.709081,-1.7145 0.719665,-0.71966 1.714495,-0.71966 1.02658,0 1.714494,0.74083 0.698498,0.73025 0.698498,1.80974 z"
             style="font-style:normal;font-variant:normal;font-weight:normal;font-stretch:normal;font-family:Dessau;-inkscape-font-specification:Dessau;fill:#ffff00;fill-opacity:1;stroke:#ffff00;stroke-width:0.265;stroke-miterlimit:4;stroke-dasharray:none;stroke-opacity:1"
             id="path1608" />
          <path
             d="m 39.922791,144.04668 h -0.412748 v -7.0379 h 0.412748 z"
             style="font-style:normal;font-variant:normal;font-weight:normal;font-stretch:normal;font-family:Dessau;-inkscape-font-specification:Dessau;fill:#ffff00;fill-opacity:1;stroke:#ffff00;stroke-width:0.265;stroke-miterlimit:4;stroke-dasharray:none;stroke-opacity:1"
             id="path1610" />
          <path
             d="m 45.267352,144.04668 h -0.412749 v -2.49766 q 0,-0.86783 -0.338665,-1.31233 -0.433915,-0.58208 -1.18533,-0.58208 -0.825497,0 -1.269996,0.67733 -0.275165,0.42333 -0.275165,1.29116 v 2.42358 h -0.412749 v -2.68816 q 0,-0.89958 0.550331,-1.49225 0.560915,-0.59266 1.407579,-0.59266 0.836081,0 1.386413,0.58208 0.550331,0.58208 0.550331,1.47108 z"
             style="font-style:normal;font-variant:normal;font-weight:normal;font-stretch:normal;font-family:Dessau;-inkscape-font-specification:Dessau;fill:#ffff00;fill-opacity:1;stroke:#ffff00;stroke-width:0.265;stroke-miterlimit:4;stroke-dasharray:none;stroke-opacity:1"
             id="path1612" />
          <path
             d="m 51.268073,144.04668 h -0.412749 v -2.04258 q 0,-1.05833 -0.550331,-1.70391 -0.550332,-0.64558 -1.460496,-0.64558 -0.814914,0 -1.407578,0.60325 -0.582082,0.60324 -0.582082,1.44991 0,0.83608 0.582082,1.43933 0.592664,0.59266 1.418162,0.59266 0.888997,0 1.650995,-0.77258 v 0.48683 q -0.730248,0.66675 -1.661579,0.66675 -1.015996,0 -1.714494,-0.6985 -0.698498,-0.6985 -0.698498,-1.71449 0,-0.99483 0.709081,-1.7145 0.719665,-0.71966 1.714495,-0.71966 1.02658,0 1.714494,0.74083 0.698498,0.73025 0.698498,1.80974 z"
             style="font-style:normal;font-variant:normal;font-weight:normal;font-stretch:normal;font-family:Dessau;-inkscape-font-specification:Dessau;fill:#ffff00;fill-opacity:1;stroke:#ffff00;stroke-width:0.265;stroke-miterlimit:4;stroke-dasharray:none;stroke-opacity:1"
             id="path1614" />
          <path
             d="m 55.660127,139.45352 q 0.148166,0 0.253999,0.11642 0.116417,0.10583 0.116417,0.26458 0,0.14817 -0.116417,0.26459 -0.105833,0.10583 -0.264582,0.10583 -0.148166,0 -0.264583,-0.10583 -0.105833,-0.11642 -0.105833,-0.26459 0,-0.15875 0.105833,-0.26458 0.116417,-0.11642 0.275166,-0.11642 z m 0,3.93699 q 0.148166,0 0.253999,0.11642 0.116417,0.10583 0.116417,0.26458 0,0.14817 -0.116417,0.26458 -0.105833,0.10584 -0.264582,0.10584 -0.148166,0 -0.264583,-0.10584 -0.105833,-0.11641 -0.105833,-0.26458 0,-0.15875 0.105833,-0.26458 0.116417,-0.11642 0.275166,-0.11642 z"
             style="font-style:normal;font-variant:normal;font-weight:normal;font-stretch:normal;font-family:Dessau;-inkscape-font-specification:Dessau;fill:#ffff00;fill-opacity:1;stroke:#ffff00;stroke-width:0.265;stroke-miterlimit:4;stroke-dasharray:none;stroke-opacity:1"
             id="path1616" />
          <path
             d="m 57.268783,137.15695 0.22225,-0.29633 q 0.920747,0.73024 1.460495,1.62982 0.804331,1.35467 0.804331,2.87866 0,1.53458 -0.804331,2.87866 -0.507998,0.83608 -1.396995,1.61924 L 57.3217,145.57067 q 0.93133,-0.77258 1.386412,-1.59808 0.687915,-1.24883 0.687915,-2.5929 0,-1.49225 -0.825498,-2.83633 -0.465665,-0.762 -1.301746,-1.38641 z"
             style="font-style:normal;font-variant:normal;font-weight:normal;font-stretch:normal;font-family:Dessau;-inkscape-font-specification:Dessau;fill:#ffff00;fill-opacity:1;stroke:#ffff00;stroke-width:0.265;stroke-miterlimit:4;stroke-dasharray:none;stroke-opacity:1"
             id="path1618" />
        </g>
      </g>
    </g>
  </g>
</svg>
